<svg version="1.2" xmlns="http://www.w3.org/2000/svg" viewBox="0 0 44 42" width="44" height="42">
	<title>Logo (1)-svg</title>
	<style>
		.s0 { opacity: .5;fill: #00b37e } 
		.s1 { fill: #00b37e } 
		.s2 { fill: #e1e1e6 } 
	</style>
	<path id="Layer" class="s0" d="m40.1 2.3l-9.8 34.7c-0.1 0.1-0.3 0.2-0.4 0.1l-6.6-6.2 4.9-17.4c0.1-0.2-0.1-0.3-0.2-0.3l-18.4 4.7-6.5-6.2c-0.1-0.1-0.1-0.3 0.1-0.4l36.6-9.3c0.2 0 0.3 0.1 0.3 0.3z"/>
	<path id="Layer" class="s0" d="m23.3 30.9l-2.5 8.9c0 0.2-0.2 0.3-0.4 0.1l-20.3-19.3c-0.2-0.1-0.1-0.3 0.1-0.3l9.4-2.4z"/>
	<path id="Layer" class="s1" d="m28.2 13.5l-4.9 17.4-13.7-13 18.4-4.7c0.1 0 0.3 0.1 0.2 0.3z"/>
	<path id="Layer" fill-rule="evenodd" class="s2" d="m63.3 29.5h-5.6v-18.2h5.6q1.8 0 3.3 0.6 1.6 0.6 2.7 1.8 1.1 1.1 1.7 2.7 0.6 1.6 0.6 3.6v0.8q0 2-0.6 3.6-0.6 1.6-1.7 2.7-1.1 1.2-2.7 1.8-1.5 0.6-3.3 0.6zm0-2.9q1.4 0 2.5-0.7 1-0.7 1.5-1.9 0.5-1.3 0.5-3.2v-0.8q0-1.4-0.3-2.5-0.3-1.1-0.9-1.8-0.5-0.7-1.4-1.1-0.8-0.4-1.9-0.4h-1.9v12.4zm18.4 2.9h-3.8v-15.3h-5.5v-2.9h14.9v2.9h-5.6zm18.3-18.1l4.7 13.3 4.6-13.3h4.9v18.1h-3.7v-5.1l0.4-8.5-5 13.6h-2.5l-4.9-13.6 0.3 8.5v5.1h-3.7v-18.1zm16.7 11.5v-0.2q0-1.5 0.5-2.8 0.4-1.2 1.2-2.2 0.8-0.9 2-1.4 1.2-0.5 2.7-0.5 1.6 0 2.8 0.5 1.2 0.5 2 1.4 0.8 1 1.2 2.2 0.4 1.3 0.4 2.8v0.2q0 1.5-0.4 2.8-0.4 1.2-1.2 2.1-0.8 1-2 1.5-1.2 0.5-2.8 0.5-1.5 0-2.7-0.5-1.2-0.5-2-1.5-0.8-0.9-1.2-2.1-0.5-1.3-0.5-2.8zm3.6-0.2v0.2q0 0.9 0.2 1.6 0.1 0.7 0.5 1.3 0.3 0.6 0.8 0.9 0.6 0.3 1.3 0.3 0.8 0 1.3-0.3 0.6-0.3 0.9-0.9 0.3-0.6 0.5-1.3 0.1-0.7 0.1-1.6v-0.2q0-0.9-0.1-1.6-0.2-0.7-0.5-1.3-0.3-0.6-0.9-0.9-0.5-0.3-1.3-0.3-0.7 0-1.3 0.3-0.5 0.3-0.8 0.9-0.4 0.6-0.5 1.3-0.2 0.7-0.2 1.6zm15 6.8h-3.6v-13.5h3.3l0.2 1.6q0 0 0 0 0.7-0.9 1.7-1.4 1-0.4 2.2-0.4 0.9 0 1.7 0.3 0.8 0.2 1.4 0.8 0.5 0.6 0.8 1.6 0.4 1 0.4 2.4v8.6h-3.7v-8.6q0-0.9-0.2-1.4-0.3-0.5-0.8-0.7-0.4-0.2-1.1-0.2-0.8 0-1.3 0.3-0.5 0.3-0.9 0.8 0 0.1-0.1 0.3zm17 0.2q-1.6 0-2.8-0.5-1.3-0.5-2.1-1.4-0.9-0.9-1.4-2.1-0.4-1.2-0.4-2.5v-0.5q0-1.6 0.4-2.8 0.5-1.3 1.3-2.3 0.8-0.9 2-1.4 1.1-0.5 2.6-0.5 1.5 0 2.6 0.5 1.1 0.4 1.8 1.3 0.8 0.9 1.2 2.1 0.4 1.2 0.4 2.7v1.5h-8.7q0.1 0.5 0.2 0.9 0.3 0.6 0.7 1.1 0.4 0.5 1 0.8 0.7 0.3 1.4 0.3 1 0 1.9-0.4 0.8-0.4 1.4-1.1l1.8 1.9q-0.5 0.6-1.2 1.1-0.7 0.6-1.7 1-1.1 0.3-2.4 0.3zm-3.1-5.9q0-0.3 0-0.6v-0.5q0-0.7 0.1-1.3h-2.2v2.4zm5.1-2.4v-0.3q0-0.7-0.3-1.3-0.2-0.6-0.8-0.9-0.5-0.4-1.3-0.4-0.7 0-1.3 0.3-0.5 0.3-0.8 0.9-0.3 0.6-0.5 1.3 0 0.2 0 0.4zm13-5.5h3.8l-5.4 15.6q-0.2 0.5-0.5 1.1-0.3 0.6-0.8 1.1-0.5 0.5-1.2 0.9-0.7 0.3-1.8 0.3-0.5 0-0.9 0-0.3-0.1-0.7-0.2v-2.7q0.1 0 0.3 0 0.1 0.1 0.2 0.1 0.8 0 1.2-0.2 0.5-0.2 0.7-0.5 0.3-0.3 0.5-0.9l0.4-1-4.8-13.6h3.9l2.5 8.5z"/>
</svg>